<svg width="147" height="44" viewBox="0 0 147 44" fill="none" xmlns="http://www.w3.org/2000/svg">
<path d="M22 42C33.0457 42 42 33.0457 42 22C42 10.9543 33.0457 2 22 2C10.9543 2 2 10.9543 2 22C2 33.0457 10.9543 42 22 42Z" stroke="white" stroke-width="4" stroke-linecap="round" stroke-linejoin="round"/>
<path d="M22 9L12 31" stroke="white" stroke-width="4" stroke-linecap="round" stroke-linejoin="round"/>
<path d="M16 24H28" stroke="white" stroke-width="4" stroke-linecap="round" stroke-linejoin="round"/>
<path d="M22 9L32 31" stroke="white" stroke-width="4" stroke-linecap="round" stroke-linejoin="round"/>
<path d="M62.2227 17.3369L57.9863 29H56.2549L61.1328 16.2031H62.249L62.2227 17.3369ZM65.7734 29L61.5283 17.3369L61.502 16.2031H62.6182L67.5137 29H65.7734ZM65.5537 24.2627V25.6514H58.3643V24.2627H65.5537ZM70.748 15.5V29H69.1133V15.5H70.748ZM74.9844 21.3184V32.6562H73.3496V19.4902H74.8438L74.9844 21.3184ZM81.3916 24.166V24.3506C81.3916 25.042 81.3096 25.6836 81.1455 26.2754C80.9814 26.8613 80.7412 27.3711 80.4248 27.8047C80.1143 28.2383 79.7305 28.5752 79.2734 28.8154C78.8164 29.0557 78.292 29.1758 77.7002 29.1758C77.0967 29.1758 76.5635 29.0762 76.1006 28.877C75.6377 28.6777 75.2451 28.3877 74.9229 28.0068C74.6006 27.626 74.3428 27.1689 74.1494 26.6357C73.9619 26.1025 73.833 25.502 73.7627 24.834V23.8496C73.833 23.1465 73.9648 22.5166 74.1582 21.96C74.3516 21.4033 74.6064 20.9287 74.9229 20.5361C75.2451 20.1377 75.6348 19.8359 76.0918 19.6309C76.5488 19.4199 77.0762 19.3145 77.6738 19.3145C78.2715 19.3145 78.8018 19.4316 79.2646 19.666C79.7275 19.8945 80.1172 20.2227 80.4336 20.6504C80.75 21.0781 80.9873 21.5908 81.1455 22.1885C81.3096 22.7803 81.3916 23.4395 81.3916 24.166ZM79.7568 24.3506V24.166C79.7568 23.6914 79.707 23.2461 79.6074 22.8301C79.5078 22.4082 79.3525 22.0391 79.1416 21.7227C78.9365 21.4004 78.6729 21.1484 78.3506 20.9668C78.0283 20.7793 77.6445 20.6855 77.1992 20.6855C76.7891 20.6855 76.4316 20.7559 76.127 20.8965C75.8281 21.0371 75.5732 21.2275 75.3623 21.4678C75.1514 21.7021 74.9785 21.9717 74.8438 22.2764C74.7148 22.5752 74.6182 22.8857 74.5537 23.208V25.4844C74.6709 25.8945 74.835 26.2812 75.0459 26.6445C75.2568 27.002 75.5381 27.292 75.8896 27.5146C76.2412 27.7314 76.6836 27.8398 77.2168 27.8398C77.6562 27.8398 78.0342 27.749 78.3506 27.5674C78.6729 27.3799 78.9365 27.125 79.1416 26.8027C79.3525 26.4805 79.5078 26.1113 79.6074 25.6953C79.707 25.2734 79.7568 24.8252 79.7568 24.3506ZM85.0918 15.5V29H83.4658V15.5H85.0918ZM84.7051 23.8848L84.0283 23.8584C84.0342 23.208 84.1309 22.6074 84.3184 22.0566C84.5059 21.5 84.7695 21.0166 85.1094 20.6064C85.4492 20.1963 85.8535 19.8799 86.3223 19.6572C86.7969 19.4287 87.3213 19.3145 87.8955 19.3145C88.3643 19.3145 88.7861 19.3789 89.1611 19.5078C89.5361 19.6309 89.8555 19.8301 90.1191 20.1055C90.3887 20.3809 90.5938 20.7383 90.7344 21.1777C90.875 21.6113 90.9453 22.1416 90.9453 22.7686V29H89.3105V22.751C89.3105 22.2529 89.2373 21.8545 89.0908 21.5557C88.9443 21.251 88.7305 21.0312 88.4492 20.8965C88.168 20.7559 87.8223 20.6855 87.4121 20.6855C87.0078 20.6855 86.6387 20.7705 86.3047 20.9404C85.9766 21.1104 85.6924 21.3447 85.4521 21.6436C85.2178 21.9424 85.0332 22.2852 84.8984 22.6719C84.7695 23.0527 84.7051 23.457 84.7051 23.8848ZM92.9492 24.3506V24.1484C92.9492 23.4629 93.0488 22.8271 93.248 22.2412C93.4473 21.6494 93.7344 21.1367 94.1094 20.7031C94.4844 20.2637 94.9385 19.9238 95.4717 19.6836C96.0049 19.4375 96.6025 19.3145 97.2646 19.3145C97.9326 19.3145 98.5332 19.4375 99.0664 19.6836C99.6055 19.9238 100.062 20.2637 100.438 20.7031C100.818 21.1367 101.108 21.6494 101.308 22.2412C101.507 22.8271 101.606 23.4629 101.606 24.1484V24.3506C101.606 25.0361 101.507 25.6719 101.308 26.2578C101.108 26.8438 100.818 27.3564 100.438 27.7959C100.062 28.2295 99.6084 28.5693 99.0752 28.8154C98.5479 29.0557 97.9502 29.1758 97.2822 29.1758C96.6143 29.1758 96.0137 29.0557 95.4805 28.8154C94.9473 28.5693 94.4902 28.2295 94.1094 27.7959C93.7344 27.3564 93.4473 26.8438 93.248 26.2578C93.0488 25.6719 92.9492 25.0361 92.9492 24.3506ZM94.5752 24.1484V24.3506C94.5752 24.8252 94.6309 25.2734 94.7422 25.6953C94.8535 26.1113 95.0205 26.4805 95.2432 26.8027C95.4717 27.125 95.7559 27.3799 96.0957 27.5674C96.4355 27.749 96.8311 27.8398 97.2822 27.8398C97.7275 27.8398 98.1172 27.749 98.4512 27.5674C98.791 27.3799 99.0723 27.125 99.2949 26.8027C99.5176 26.4805 99.6846 26.1113 99.7959 25.6953C99.9131 25.2734 99.9717 24.8252 99.9717 24.3506V24.1484C99.9717 23.6797 99.9131 23.2373 99.7959 22.8213C99.6846 22.3994 99.5146 22.0273 99.2861 21.7051C99.0635 21.377 98.7822 21.1191 98.4424 20.9316C98.1084 20.7441 97.7158 20.6504 97.2646 20.6504C96.8193 20.6504 96.4268 20.7441 96.0869 20.9316C95.7529 21.1191 95.4717 21.377 95.2432 21.7051C95.0205 22.0273 94.8535 22.3994 94.7422 22.8213C94.6309 23.2373 94.5752 23.6797 94.5752 24.1484ZM105.271 21.5205V29H103.646V19.4902H105.184L105.271 21.5205ZM104.885 23.8848L104.208 23.8584C104.214 23.208 104.311 22.6074 104.498 22.0566C104.686 21.5 104.949 21.0166 105.289 20.6064C105.629 20.1963 106.033 19.8799 106.502 19.6572C106.977 19.4287 107.501 19.3145 108.075 19.3145C108.544 19.3145 108.966 19.3789 109.341 19.5078C109.716 19.6309 110.035 19.8301 110.299 20.1055C110.568 20.3809 110.773 20.7383 110.914 21.1777C111.055 21.6113 111.125 22.1416 111.125 22.7686V29H109.49V22.751C109.49 22.2529 109.417 21.8545 109.271 21.5557C109.124 21.251 108.91 21.0312 108.629 20.8965C108.348 20.7559 108.002 20.6855 107.592 20.6855C107.188 20.6855 106.818 20.7705 106.484 20.9404C106.156 21.1104 105.872 21.3447 105.632 21.6436C105.397 21.9424 105.213 22.2852 105.078 22.6719C104.949 23.0527 104.885 23.457 104.885 23.8848ZM119.132 26.4775C119.132 26.2432 119.079 26.0264 118.974 25.8271C118.874 25.6221 118.666 25.4375 118.35 25.2734C118.039 25.1035 117.57 24.957 116.943 24.834C116.416 24.7227 115.938 24.5908 115.511 24.4385C115.089 24.2861 114.729 24.1016 114.43 23.8848C114.137 23.668 113.911 23.4131 113.753 23.1201C113.595 22.8271 113.516 22.4844 113.516 22.0918C113.516 21.7168 113.598 21.3623 113.762 21.0283C113.932 20.6943 114.169 20.3984 114.474 20.1406C114.784 19.8828 115.156 19.6807 115.59 19.5342C116.023 19.3877 116.507 19.3145 117.04 19.3145C117.802 19.3145 118.452 19.4492 118.991 19.7188C119.53 19.9883 119.943 20.3486 120.23 20.7998C120.518 21.2451 120.661 21.7402 120.661 22.2852H119.035C119.035 22.0215 118.956 21.7666 118.798 21.5205C118.646 21.2686 118.42 21.0605 118.121 20.8965C117.828 20.7324 117.468 20.6504 117.04 20.6504C116.589 20.6504 116.223 20.7207 115.941 20.8613C115.666 20.9961 115.464 21.1689 115.335 21.3799C115.212 21.5908 115.15 21.8135 115.15 22.0479C115.15 22.2236 115.18 22.3818 115.238 22.5225C115.303 22.6572 115.414 22.7832 115.572 22.9004C115.73 23.0117 115.953 23.1172 116.24 23.2168C116.527 23.3164 116.894 23.416 117.339 23.5156C118.118 23.6914 118.76 23.9023 119.264 24.1484C119.768 24.3945 120.143 24.6963 120.389 25.0537C120.635 25.4111 120.758 25.8447 120.758 26.3545C120.758 26.7705 120.67 27.1514 120.494 27.4971C120.324 27.8428 120.075 28.1416 119.747 28.3936C119.425 28.6396 119.038 28.833 118.587 28.9736C118.142 29.1084 117.641 29.1758 117.084 29.1758C116.246 29.1758 115.537 29.0264 114.957 28.7275C114.377 28.4287 113.938 28.042 113.639 27.5674C113.34 27.0928 113.19 26.5918 113.19 26.0645H114.825C114.849 26.5098 114.978 26.8643 115.212 27.1279C115.446 27.3857 115.733 27.5703 116.073 27.6816C116.413 27.7871 116.75 27.8398 117.084 27.8398C117.529 27.8398 117.901 27.7812 118.2 27.6641C118.505 27.5469 118.736 27.3857 118.895 27.1807C119.053 26.9756 119.132 26.7412 119.132 26.4775ZM122.463 24.3506V24.1484C122.463 23.4629 122.562 22.8271 122.762 22.2412C122.961 21.6494 123.248 21.1367 123.623 20.7031C123.998 20.2637 124.452 19.9238 124.985 19.6836C125.519 19.4375 126.116 19.3145 126.778 19.3145C127.446 19.3145 128.047 19.4375 128.58 19.6836C129.119 19.9238 129.576 20.2637 129.951 20.7031C130.332 21.1367 130.622 21.6494 130.821 22.2412C131.021 22.8271 131.12 23.4629 131.12 24.1484V24.3506C131.12 25.0361 131.021 25.6719 130.821 26.2578C130.622 26.8438 130.332 27.3564 129.951 27.7959C129.576 28.2295 129.122 28.5693 128.589 28.8154C128.062 29.0557 127.464 29.1758 126.796 29.1758C126.128 29.1758 125.527 29.0557 124.994 28.8154C124.461 28.5693 124.004 28.2295 123.623 27.7959C123.248 27.3564 122.961 26.8438 122.762 26.2578C122.562 25.6719 122.463 25.0361 122.463 24.3506ZM124.089 24.1484V24.3506C124.089 24.8252 124.145 25.2734 124.256 25.6953C124.367 26.1113 124.534 26.4805 124.757 26.8027C124.985 27.125 125.27 27.3799 125.609 27.5674C125.949 27.749 126.345 27.8398 126.796 27.8398C127.241 27.8398 127.631 27.749 127.965 27.5674C128.305 27.3799 128.586 27.125 128.809 26.8027C129.031 26.4805 129.198 26.1113 129.31 25.6953C129.427 25.2734 129.485 24.8252 129.485 24.3506V24.1484C129.485 23.6797 129.427 23.2373 129.31 22.8213C129.198 22.3994 129.028 22.0273 128.8 21.7051C128.577 21.377 128.296 21.1191 127.956 20.9316C127.622 20.7441 127.229 20.6504 126.778 20.6504C126.333 20.6504 125.94 20.7441 125.601 20.9316C125.267 21.1191 124.985 21.377 124.757 21.7051C124.534 22.0273 124.367 22.3994 124.256 22.8213C124.145 23.2373 124.089 23.6797 124.089 24.1484Z" fill="white"/>
</svg>
